<?xml version="1.0" encoding="UTF-8"?>
<svg xmlns="http://www.w3.org/2000/svg" xmlns:xlink="http://www.w3.org/1999/xlink" width="px" height="px" viewBox="0 0 128 128" version="1.1">
<g id="surface1">
<path style=" stroke:none;fill-rule:nonzero;fill:rgb(0%,0%,0%);fill-opacity:1;" d="M 9.449219 3.273438 C 5.175781 4.273438 1.398438 8.5 0.375 13.375 C -0.175781 15.976562 -0.175781 87.75 0.375 90.324219 C 1.449219 95.398438 5.25 99.550781 9.699219 100.476562 C 11.351562 100.824219 26.699219 100.851562 27.601562 100.5 C 29.125 99.925781 29.574219 97.699219 28.398438 96.523438 L 27.75 95.875 L 19.050781 95.75 C 10.699219 95.625 10.324219 95.601562 9.351562 95.074219 C 7.949219 94.324219 6.375 92.5 5.699219 90.773438 L 5.125 89.375 L 5.125 41.375 L 59.449219 41.300781 L 113.75 41.25 L 113.75 66.75 L 112.824219 66.75 C 111.675781 66.75 109.875 67.550781 108.976562 68.398438 L 108.300781 69.050781 L 106.601562 68.300781 C 105.648438 67.898438 104.625 67.476562 104.324219 67.398438 C 103.898438 67.273438 103.75 66.976562 103.625 65.925781 C 103.324219 63.726562 102.25 62.148438 100.398438 61.199219 C 99.199219 60.574219 94.824219 60.300781 92.625 60.726562 C 89.898438 61.226562 88.101562 63.148438 87.824219 65.824219 L 87.699219 67.148438 L 85.476562 68.101562 L 83.25 69.050781 L 82.476562 68.375 C 81.125 67.273438 80.226562 66.925781 78.625 66.925781 C 77.601562 66.925781 76.824219 67.074219 76.125 67.449219 C 74.773438 68.148438 70.625 72.398438 70.125 73.550781 C 69.351562 75.449219 69.898438 78.199219 71.375 79.75 L 72 80.398438 L 71.023438 82.625 L 70.050781 84.875 L 68.726562 85 C 67.175781 85.175781 66.148438 85.648438 65.226562 86.675781 C 63.898438 88.101562 63.648438 88.875 63.550781 92.425781 L 63.449219 95.75 L 47.949219 95.75 L 47.226562 96.476562 C 46 97.699219 46.351562 99.675781 47.925781 100.476562 C 48.300781 100.675781 51.824219 100.75 59.300781 100.75 L 70.125 100.75 L 71.074219 103 L 72.050781 105.273438 L 71.300781 106.101562 C 69.726562 107.898438 69.351562 110.5 70.398438 112.550781 C 71.050781 113.824219 75.023438 117.675781 76.273438 118.25 C 77.824219 118.949219 79.601562 118.898438 81.175781 118.125 C 81.875 117.773438 82.625 117.273438 82.851562 117.023438 C 83.25 116.574219 83.351562 116.601562 85.476562 117.476562 L 87.699219 118.375 L 87.976562 120 C 88.324219 122.101562 89.226562 123.375 90.976562 124.300781 C 92.226562 124.949219 92.476562 125 95.550781 125 C 97.351562 125 99.25 124.875 99.773438 124.726562 C 101.875 124.074219 103.425781 122.050781 103.675781 119.601562 C 103.75 118.851562 103.949219 118.25 104.101562 118.25 C 104.25 118.25 105.273438 117.851562 106.375 117.375 L 108.351562 116.5 L 109.125 117.25 C 110.699219 118.773438 113.398438 119.199219 115.375 118.25 C 116.675781 117.625 120.875 113.375 121.375 112.175781 C 122.175781 110.226562 121.699219 107.625 120.25 106.125 L 119.5 105.351562 L 120.375 103.375 C 120.851562 102.273438 121.25 101.226562 121.25 101.050781 C 121.25 100.875 121.601562 100.75 122.148438 100.75 C 123.773438 100.75 125.074219 100.199219 126.25 99 C 127.726562 97.523438 128 96.550781 128 92.550781 C 128 89.476562 127.949219 89.226562 127.300781 87.976562 C 126.351562 86.148438 125 85.226562 123 85.023438 L 121.449219 84.875 L 120.875 83.351562 C 120.550781 82.5 120.125 81.476562 119.898438 81.050781 C 119.550781 80.375 119.550781 80.273438 119.898438 79.976562 C 120.125 79.800781 120.625 79.074219 121.023438 78.375 C 122.351562 76.074219 121.949219 73.574219 119.875 71.273438 L 119.023438 70.351562 L 118.949219 42.226562 L 118.875 14.125 L 118.199219 12.101562 C 117.023438 8.699219 114.574219 5.574219 112.050781 4.273438 C 109.425781 2.925781 112.050781 3 59.25 3.023438 C 31.949219 3.050781 9.949219 3.148438 9.449219 3.273438 Z M 108.824219 8.398438 C 110.351562 8.925781 111.976562 10.5 112.898438 12.398438 L 113.625 13.875 L 113.699219 25.050781 L 113.773438 36.25 L 4.976562 36.25 L 5.050781 25.300781 C 5.125 14.625 5.148438 14.351562 5.699219 12.976562 C 6.625 10.675781 8.476562 8.851562 10.5 8.226562 C 10.851562 8.125 32.851562 8.023438 59.398438 8.023438 C 102.976562 8 107.773438 8.050781 108.824219 8.398438 Z M 98.5 67.550781 C 98.5 68.773438 98.648438 69.648438 98.949219 70.25 C 99.324219 71.050781 99.601562 71.199219 101.75 71.898438 C 103.050781 72.324219 105.050781 73.148438 106.175781 73.699219 C 107.324219 74.273438 108.5 74.75 108.824219 74.75 C 109.523438 74.75 110.273438 74.25 111.824219 72.773438 L 113 71.648438 L 114.875 73.5 C 115.898438 74.523438 116.75 75.476562 116.75 75.625 C 116.75 75.773438 116.199219 76.449219 115.5 77.125 C 114.824219 77.800781 114.125 78.726562 113.976562 79.175781 C 113.726562 79.949219 113.800781 80.226562 114.949219 82.574219 C 115.648438 83.976562 116.449219 85.925781 116.726562 86.898438 C 117.476562 89.425781 117.976562 89.824219 120.699219 90 L 122.875 90.125 L 122.949219 92.601562 C 123 94.199219 122.925781 95.175781 122.726562 95.398438 C 122.523438 95.648438 121.851562 95.75 120.5 95.75 C 117.898438 95.75 117.523438 96.050781 116.625 98.925781 C 116.25 100.148438 115.449219 102.101562 114.824219 103.300781 C 113.800781 105.273438 113.726562 105.523438 113.976562 106.300781 C 114.125 106.773438 114.824219 107.699219 115.5 108.375 C 116.199219 109.050781 116.75 109.726562 116.75 109.875 C 116.75 110.199219 113.199219 113.75 112.851562 113.75 C 112.726562 113.75 112 113.125 111.25 112.375 C 109.398438 110.5 108.949219 110.449219 106.300781 111.824219 C 105.101562 112.449219 103.148438 113.25 101.949219 113.601562 C 99.074219 114.476562 98.75 114.875 98.75 117.5 C 98.75 118.851562 98.648438 119.523438 98.398438 119.726562 C 98.175781 119.925781 97.199219 120 95.601562 119.949219 L 93.125 119.875 L 93 117.699219 C 92.824219 114.976562 92.425781 114.476562 89.898438 113.726562 C 88.925781 113.425781 87 112.625 85.625 111.949219 C 83.351562 110.800781 83.074219 110.726562 82.25 110.976562 C 81.773438 111.125 80.824219 111.800781 80.125 112.5 C 79.449219 113.175781 78.773438 113.75 78.625 113.75 C 78.476562 113.75 77.550781 112.925781 76.523438 111.898438 C 74.5 109.875 74.449219 109.601562 75.976562 108.523438 C 76.875 107.875 77.75 106.5 77.75 105.75 C 77.75 105.425781 77.25 104.199219 76.648438 103.023438 C 76.050781 101.851562 75.300781 100.023438 75 99 C 74.175781 96.273438 73.75 95.898438 71.050781 95.75 L 68.875 95.625 L 68.800781 92.800781 L 68.726562 90 L 70.550781 90 C 71.773438 90 72.648438 89.851562 73.25 89.550781 C 74.050781 89.175781 74.199219 88.898438 75 86.5 C 75.5 85.050781 76.324219 83.101562 76.824219 82.148438 C 77.324219 81.199219 77.75 80.199219 77.75 79.949219 C 77.75 79.199219 77.125 78.199219 75.898438 77 C 75.273438 76.398438 74.75 75.773438 74.75 75.648438 C 74.75 75.226562 78.074219 72 78.5 72 C 78.726562 72 79.351562 72.449219 79.875 73.023438 C 81.023438 74.199219 81.976562 74.75 82.851562 74.75 C 83.175781 74.75 84.425781 74.25 85.574219 73.648438 C 86.75 73.023438 88.523438 72.273438 89.550781 72 C 90.800781 71.625 91.601562 71.226562 92.074219 70.726562 C 92.699219 70.050781 92.75 69.824219 92.75 68.050781 C 92.75 66.976562 92.824219 66 92.925781 65.925781 C 93 65.824219 94.300781 65.75 95.800781 65.75 L 98.5 65.75 Z M 98.5 67.550781 "/>
<path style=" stroke:none;fill-rule:nonzero;fill:rgb(0%,0%,0%);fill-opacity:1;" d="M 21.25 14.125 C 19.699219 14.550781 17.601562 15.898438 16.824219 16.949219 C 15.425781 18.851562 15.125 19.773438 15.125 22.25 C 15.125 24.226562 15.226562 24.824219 15.699219 25.773438 C 16.625 27.648438 17.875 28.898438 19.675781 29.800781 C 21.148438 30.523438 21.601562 30.625 23.375 30.625 C 25.050781 30.625 25.625 30.5 26.875 29.925781 C 28.800781 29.023438 30.550781 27.175781 31.25 25.300781 C 32 23.351562 31.875 20.398438 31 18.625 C 29.25 15.023438 25.023438 13.101562 21.25 14.125 Z M 25.550781 19.675781 C 27.074219 21.050781 27.125 23.324219 25.675781 24.675781 C 24.523438 25.726562 23.324219 25.949219 22.074219 25.351562 C 19.75 24.199219 19.324219 21.375 21.226562 19.648438 C 22.25 18.699219 24.5 18.726562 25.550781 19.675781 Z M 25.550781 19.675781 "/>
<path style=" stroke:none;fill-rule:nonzero;fill:rgb(0%,0%,0%);fill-opacity:1;" d="M 43.226562 14.074219 C 38.898438 15.300781 36.25 19.398438 37.023438 23.675781 C 37.550781 26.523438 39.25 28.699219 41.976562 29.976562 C 43.949219 30.898438 46.75 30.898438 48.773438 29.949219 C 50.574219 29.125 52.125 27.601562 52.976562 25.773438 C 53.523438 24.601562 53.625 24.023438 53.625 22.25 C 53.625 20.425781 53.523438 19.925781 52.925781 18.699219 C 51.175781 15.125 46.851562 13.050781 43.226562 14.074219 Z M 47.5 19.726562 C 49 20.824219 49.074219 23.226562 47.648438 24.648438 C 46.550781 25.75 45.351562 25.949219 43.949219 25.273438 C 42.601562 24.625 42 23.648438 42 22.148438 C 42 21.199219 42.148438 20.851562 42.824219 20.101562 C 44.101562 18.699219 45.949219 18.550781 47.5 19.726562 Z M 47.5 19.726562 "/>
<path style=" stroke:none;fill-rule:nonzero;fill:rgb(0%,0%,0%);fill-opacity:1;" d="M 73.175781 14.023438 C 68.050781 15.226562 65.148438 20.925781 67.226562 25.648438 C 67.925781 27.199219 69.824219 29.125 71.476562 29.925781 L 72.875 30.625 L 86.125 30.625 C 99.375 30.625 99.375 30.625 100.601562 30.050781 C 102.5 29.199219 103.824219 27.949219 104.75 26.226562 C 106.773438 22.398438 105.648438 17.800781 102.050781 15.324219 C 99.851562 13.800781 99.199219 13.75 86 13.773438 C 79.476562 13.800781 73.699219 13.898438 73.175781 14.023438 Z M 99.226562 19.476562 C 100.75 20.574219 101.175781 22.550781 100.175781 24.023438 C 99.023438 25.773438 99.175781 25.75 86.476562 25.75 C 80.199219 25.75 74.699219 25.675781 74.25 25.601562 C 73.175781 25.375 71.851562 24.023438 71.648438 22.898438 C 71.425781 21.773438 72.175781 19.925781 73.023438 19.476562 C 74.25 18.824219 75.25 18.773438 86.625 18.824219 L 98.375 18.875 Z M 99.226562 19.476562 "/>
<path style=" stroke:none;fill-rule:nonzero;fill:rgb(0%,0%,0%);fill-opacity:1;" d="M 92 77.898438 C 87.800781 79 83.875 82.175781 82.050781 86.023438 C 80.75 88.699219 80.398438 90.574219 80.550781 93.824219 C 80.648438 95.851562 80.824219 96.726562 81.375 98.125 C 83.199219 102.699219 86.425781 105.800781 91.050781 107.425781 C 93.398438 108.273438 97.5 108.375 99.875 107.648438 C 105.074219 106.101562 109.101562 102.074219 110.648438 96.875 C 111.324219 94.601562 111.273438 90.875 110.550781 88.5 C 108.949219 83.324219 104.5 79.074219 99.449219 77.875 C 97.476562 77.425781 93.800781 77.425781 92 77.898438 Z M 100.101562 83.449219 C 106.550781 86.476562 108.101562 94.726562 103.226562 99.875 C 98.273438 105.125 89.773438 103.824219 86.574219 97.324219 C 85.800781 95.75 85.648438 95.148438 85.550781 93.398438 C 85.425781 90.824219 85.875 89.125 87.226562 87.101562 C 88.449219 85.25 90.351562 83.800781 92.476562 83.050781 C 94.851562 82.226562 97.800781 82.375 100.101562 83.449219 Z M 100.101562 83.449219 "/>
<path style=" stroke:none;fill-rule:nonzero;fill:rgb(0%,0%,0%);fill-opacity:1;" d="M 39.574219 55.75 C 39.273438 55.875 38.851562 56.25 38.625 56.574219 C 38.148438 57.300781 33.226562 77.648438 33.175781 79.074219 C 33.148438 79.875 33.273438 80.175781 33.949219 80.773438 C 35.375 82.050781 37.375 81.523438 37.976562 79.675781 C 38.550781 77.898438 43.023438 58.824219 43.050781 58.101562 C 43.050781 57.050781 42.648438 56.324219 41.75 55.875 C 40.949219 55.449219 40.398438 55.425781 39.574219 55.75 Z M 39.574219 55.75 "/>
<path style=" stroke:none;fill-rule:nonzero;fill:rgb(0%,0%,0%);fill-opacity:1;" d="M 22.851562 57.824219 C 21.800781 58.425781 14.75 66.601562 14.449219 67.550781 C 13.949219 69.226562 14.398438 70.023438 18.398438 74.523438 C 20.398438 76.773438 22.273438 78.824219 22.550781 79.050781 C 22.851562 79.324219 23.476562 79.5 24.101562 79.5 C 25.550781 79.5 26.5 78.523438 26.5 77.074219 C 26.5 76.125 26.300781 75.824219 23.25 72.375 C 21.476562 70.375 20 68.625 20 68.523438 C 20 68.425781 20.648438 67.625 21.449219 66.726562 C 26.675781 60.824219 26.5 61.050781 26.5 59.976562 C 26.5 58.074219 24.476562 56.875 22.851562 57.824219 Z M 22.851562 57.824219 "/>
<path style=" stroke:none;fill-rule:nonzero;fill:rgb(0%,0%,0%);fill-opacity:1;" d="M 50.550781 58.125 C 49.675781 58.875 49.425781 59.851562 49.875 60.875 C 50.050781 61.273438 51.574219 63.148438 53.226562 65 C 54.875 66.851562 56.25 68.449219 56.25 68.523438 C 56.25 68.625 54.824219 70.273438 53.101562 72.226562 C 49.351562 76.449219 48.949219 77.398438 50.425781 78.851562 C 50.898438 79.351562 51.324219 79.5 52.101562 79.5 C 52.648438 79.5 53.300781 79.351562 53.523438 79.175781 C 54.625 78.351562 61.523438 70.273438 61.773438 69.550781 C 62.300781 67.976562 61.898438 67.175781 59.050781 63.925781 C 57.574219 62.25 55.648438 60.125 54.75 59.175781 C 53.324219 57.726562 53 57.5 52.199219 57.5 C 51.601562 57.5 51.050781 57.699219 50.550781 58.125 Z M 50.550781 58.125 "/>
<path style=" stroke:none;fill-rule:nonzero;fill:rgb(0%,0%,0%);fill-opacity:1;" d="M 36.476562 96.125 C 35.023438 96.925781 34.949219 98.976562 36.324219 100.148438 C 36.976562 100.699219 37.273438 100.773438 38.101562 100.675781 C 39.5 100.476562 40.25 99.574219 40.25 98.125 C 40.25 97.226562 40.125 96.949219 39.476562 96.398438 C 38.625 95.675781 37.5 95.574219 36.476562 96.125 Z M 36.476562 96.125 "/>
</g>
</svg>
