<?xml version="1.0" encoding="UTF-8"?>
<svg xmlns="http://www.w3.org/2000/svg" xmlns:xlink="http://www.w3.org/1999/xlink" width="px" height="px" viewBox="0 0 128 128" version="1.1">
<g id="surface1">
<path style=" stroke:none;fill-rule:nonzero;fill:rgb(0%,0%,0%);fill-opacity:1;" d="M 13.625 4.300781 C 9.074219 5.148438 5.125 9.226562 4.273438 13.851562 C 3.898438 15.925781 3.898438 88.074219 4.273438 90.148438 C 5.148438 94.898438 9.101562 98.851562 13.851562 99.726562 C 14.824219 99.898438 21.300781 100 32.675781 100 L 50 100 L 50 116 L 41.675781 116 C 33.550781 116 33.324219 116.023438 32.25 116.550781 C 31.050781 117.175781 30 118.773438 30 120 C 30 121.226562 31.050781 122.824219 32.25 123.425781 L 33.351562 124 L 94.648438 124 L 95.75 123.425781 C 96.949219 122.824219 98 121.226562 98 120 C 98 118.773438 96.949219 117.175781 95.75 116.550781 C 94.675781 116.023438 94.449219 116 86.324219 116 L 78 116 L 78 100 L 95.699219 99.976562 C 111.574219 99.976562 113.550781 99.925781 115.023438 99.550781 C 118.050781 98.75 120.625 96.773438 122.351562 93.925781 C 124.074219 91 124 93.125 123.976562 51.824219 C 123.976562 17.5 123.949219 14.5 123.550781 12.976562 C 122.75 9.949219 120.773438 7.375 117.925781 5.648438 C 114.976562 3.898438 118.425781 4 63.949219 4.023438 C 34.074219 4.050781 14.375 4.148438 13.625 4.300781 Z M 114.148438 12.648438 C 114.523438 12.925781 115.074219 13.476562 115.351562 13.851562 C 115.851562 14.5 115.875 14.925781 115.949219 21.273438 L 116.023438 28 L 12 28 L 12 21.398438 C 12 14.976562 12.023438 14.800781 12.574219 13.976562 C 12.875 13.523438 13.523438 12.875 13.976562 12.574219 L 14.824219 12 L 64.148438 12.050781 L 113.476562 12.125 Z M 115.949219 62.726562 C 115.875 89.300781 115.875 89.476562 115.351562 90.148438 C 115.074219 90.523438 114.523438 91.074219 114.148438 91.351562 L 113.476562 91.875 L 64.148438 91.949219 L 14.824219 92 L 13.976562 91.425781 C 13.523438 91.125 12.875 90.476562 12.574219 90.023438 L 12 89.175781 L 12 36 L 116 36 Z M 70 108 L 70 116 L 58 116 L 58 100 L 70 100 Z M 70 108 "/>
<path style=" stroke:none;fill-rule:nonzero;fill:rgb(0%,0%,0%);fill-opacity:1;" d="M 18.25 16.550781 C 17.050781 17.175781 16 18.773438 16 20 C 16 20.351562 16.25 21.148438 16.574219 21.75 C 17.324219 23.273438 18.75 24 21 24 C 23.25 24 24.675781 23.273438 25.449219 21.75 C 25.75 21.148438 26 20.351562 26 20 C 26 19.648438 25.75 18.851562 25.449219 18.25 C 24.675781 16.726562 23.25 16 21 16 C 19.800781 16 19.050781 16.148438 18.25 16.550781 Z M 18.25 16.550781 "/>
<path style=" stroke:none;fill-rule:nonzero;fill:rgb(0%,0%,0%);fill-opacity:1;" d="M 32.25 16.550781 C 31.050781 17.175781 30 18.773438 30 20 C 30 20.351562 30.25 21.148438 30.574219 21.75 C 31.324219 23.273438 32.75 24 35 24 C 37.25 24 38.675781 23.273438 39.449219 21.75 C 39.75 21.148438 40 20.351562 40 20 C 40 19.648438 39.75 18.851562 39.449219 18.25 C 38.675781 16.726562 37.25 16 35 16 C 33.800781 16 33.050781 16.148438 32.25 16.550781 Z M 32.25 16.550781 "/>
<path style=" stroke:none;fill-rule:nonzero;fill:rgb(0%,0%,0%);fill-opacity:1;" d="M 46.25 16.550781 C 45.050781 17.175781 44 18.773438 44 20 C 44 20.351562 44.25 21.148438 44.574219 21.75 C 45.324219 23.273438 46.75 24 49 24 C 51.25 24 52.675781 23.273438 53.449219 21.75 C 53.75 21.148438 54 20.351562 54 20 C 54 19.648438 53.75 18.851562 53.449219 18.25 C 52.675781 16.726562 51.25 16 49 16 C 47.800781 16 47.050781 16.148438 46.25 16.550781 Z M 46.25 16.550781 "/>
<path style=" stroke:none;fill-rule:nonzero;fill:rgb(0%,0%,0%);fill-opacity:1;" d="M 22.25 42.550781 C 21.425781 42.976562 20.976562 43.425781 20.574219 44.25 L 20 45.351562 L 20 82.648438 L 20.574219 83.75 C 20.976562 84.574219 21.425781 85.023438 22.25 85.425781 L 23.351562 86 L 76.648438 86 L 77.75 85.425781 C 78.574219 85.023438 79.023438 84.574219 79.449219 83.75 L 80 82.648438 L 80 45.351562 L 79.449219 44.25 C 79.023438 43.425781 78.574219 42.976562 77.75 42.550781 L 76.648438 42 L 23.351562 42 Z M 72 64 L 72 78 L 28 78 L 28 68 L 60.648438 68 L 61.75 67.425781 C 62.949219 66.824219 64 65.226562 64 64 C 64 62.773438 62.949219 61.175781 61.75 60.550781 L 60.648438 60 L 28 60 L 28 50 L 72 50 Z M 72 64 "/>
<path style=" stroke:none;fill-rule:nonzero;fill:rgb(0%,0%,0%);fill-opacity:1;" d="M 90.324219 48.5 C 88.574219 49.273438 87.75 51.101562 88.25 53.050781 C 88.5 53.976562 89.25 54.851562 93.449219 59.050781 L 98.351562 64 L 93.449219 68.925781 C 88.300781 74.148438 87.773438 74.875 88.125 76.574219 C 88.375 77.726562 89.101562 78.800781 89.976562 79.324219 C 91.050781 79.949219 93.023438 79.949219 94.050781 79.300781 C 94.5 79 97.75 75.875 101.300781 72.324219 C 110.226562 63.351562 110.25 64.675781 101.050781 55.449219 C 97.398438 51.773438 94.023438 48.574219 93.601562 48.375 C 92.550781 47.875 91.601562 47.898438 90.324219 48.5 Z M 90.324219 48.5 "/>
</g>
</svg>
