<?xml version="1.0" encoding="UTF-8"?>
<svg xmlns="http://www.w3.org/2000/svg" xmlns:xlink="http://www.w3.org/1999/xlink" width="150px" height="150px" viewBox="0 0 150 150" version="1.1">
<g id="surface1">
<path style=" stroke:none;fill-rule:nonzero;fill:rgb(95.686275%,26.274511%,21.176471%);fill-opacity:1;" d="M 73.90625 77.804688 C 70.789062 72.777344 68.523438 68.609375 65.390625 60.757812 C 60.089844 47.5 97.625 35.519531 82.40625 12.496094 C 89.003906 28.398438 58.726562 38.230469 55.914062 51.476562 C 53.34375 63.65625 73.890625 77.804688 73.90625 77.804688 Z M 73.90625 77.804688 "/>
<path style=" stroke:none;fill-rule:nonzero;fill:rgb(95.686275%,26.274511%,21.176471%);fill-opacity:1;" d="M 74.617188 53.96875 C 74.019531 61.832031 81.585938 66.023438 81.804688 71.765625 C 81.976562 76.441406 77.28125 80.335938 77.28125 80.335938 C 77.28125 80.335938 85.804688 78.664062 88.464844 71.53125 C 91.417969 63.613281 82.734375 58.191406 83.628906 51.851562 C 84.460938 45.792969 102.476562 34.527344 102.476562 34.527344 C 102.476562 34.527344 75.972656 36.285156 74.617188 53.96875 Z M 74.617188 53.96875 "/>
<path style=" stroke:none;fill-rule:nonzero;fill:rgb(8.235294%,39.607844%,75.294119%);fill-opacity:1;" d="M 100.261719 78.296875 C 105.742188 77.066406 110.367188 80.554688 110.367188 84.578125 C 110.367188 93.644531 97.800781 102.210938 97.800781 102.210938 C 97.800781 102.210938 117.253906 99.894531 117.253906 85.007812 C 117.253906 75.164062 107.699219 72.707031 100.261719 78.296875 Z M 91.027344 85.609375 C 91.027344 85.609375 97.09375 81.289062 98.710938 79.664062 C 83.824219 82.824219 49.839844 83.25 49.839844 80.507812 C 49.839844 77.976562 60.800781 75.386719 60.800781 75.386719 C 60.800781 75.386719 36.507812 75.039062 36.507812 82.203125 C 36.507812 89.671875 68.304688 90.207031 91.027344 85.609375 Z M 91.027344 85.609375 "/>
<path style=" stroke:none;fill-rule:nonzero;fill:rgb(8.235294%,39.607844%,75.294119%);fill-opacity:1;" d="M 87.296875 92.410156 C 73.207031 97.09375 47.253906 95.597656 54.941406 89.304688 C 51.195312 89.304688 45.648438 92.316406 45.648438 95.210938 C 45.648438 101.011719 73.714844 105.492188 94.492188 96.996094 Z M 87.296875 92.410156 "/>
<path style=" stroke:none;fill-rule:nonzero;fill:rgb(8.235294%,39.607844%,75.294119%);fill-opacity:1;" d="M 58.394531 102.308594 C 53.28125 102.308594 49.972656 105.601562 49.972656 108.003906 C 49.972656 115.476562 80.472656 116.226562 92.554688 108.644531 L 84.875 103.542969 C 75.847656 107.511719 53.167969 108.058594 58.394531 102.308594 Z M 58.394531 102.308594 "/>
<path style=" stroke:none;fill-rule:nonzero;fill:rgb(8.235294%,39.607844%,75.294119%);fill-opacity:1;" d="M 113.378906 114.476562 C 113.378906 111.550781 110.082031 110.171875 108.898438 109.511719 C 115.863281 126.304688 39.160156 125 39.160156 115.085938 C 39.160156 112.835938 44.804688 110.628906 50.023438 111.671875 L 45.585938 109.050781 C 35.1875 107.417969 28.125 111.992188 28.125 115.679688 C 28.125 132.875 113.378906 132.046875 113.378906 114.476562 Z M 113.378906 114.476562 "/>
<path style=" stroke:none;fill-rule:nonzero;fill:rgb(8.235294%,39.607844%,75.294119%);fill-opacity:1;" d="M 121.875 120.636719 C 108.917969 133.433594 76.066406 138.097656 43.027344 130.191406 C 76.066406 144.261719 121.71875 136.335938 121.875 120.636719 Z M 121.875 120.636719 "/>
</g>
</svg>
