<?xml version="1.0" encoding="UTF-8"?>
<svg xmlns="http://www.w3.org/2000/svg" xmlns:xlink="http://www.w3.org/1999/xlink" width="150px" height="150px" viewBox="0 0 150 150" version="1.1">
<g id="surface1">
<path style=" stroke:none;fill-rule:nonzero;fill:rgb(0.784314%,46.666667%,74.117649%);fill-opacity:1;" d="M 75.148438 15.625 C 70.289062 15.640625 66.917969 16.070312 62.847656 16.773438 C 50.820312 18.867188 48.632812 23.261719 48.632812 31.367188 L 48.632812 43.75 L 76.757812 43.75 L 76.757812 50 L 33.96875 50 C 25.730469 50 18.523438 53.882812 16.238281 63.183594 C 13.65625 73.863281 13.539062 80.550781 16.238281 91.699219 C 18.285156 100.015625 22.792969 106.25 31.035156 106.25 L 42.382812 106.25 L 42.382812 90.300781 C 42.382812 81.03125 50.777344 71.875 60.398438 71.875 L 83.007812 71.875 C 90.894531 71.875 98.632812 66.054688 98.632812 58.195312 L 98.632812 31.367188 C 98.632812 23.742188 93.136719 18.042969 85.453125 16.765625 C 85.644531 16.746094 79.964844 15.605469 75.148438 15.625 Z M 59.570312 28.125 C 62.136719 28.125 64.257812 30.242188 64.257812 32.820312 C 64.257812 35.421875 62.136719 37.5 59.570312 37.5 C 56.957031 37.5 54.882812 35.425781 54.882812 32.820312 C 54.882812 30.25 56.957031 28.125 59.570312 28.125 Z M 59.570312 28.125 "/>
<path style=" stroke:none;fill-rule:nonzero;fill:rgb(100%,75.686276%,2.745098%);fill-opacity:1;" d="M 72.117188 134.375 C 76.976562 134.359375 80.347656 133.929688 84.417969 133.226562 C 96.445312 131.132812 98.632812 126.738281 98.632812 118.632812 L 98.632812 106.25 L 70.507812 106.25 L 70.507812 100 L 113.300781 100 C 121.539062 100 128.746094 96.117188 131.03125 86.816406 C 133.613281 76.136719 133.726562 69.449219 131.03125 58.300781 C 128.980469 49.984375 124.472656 43.75 116.230469 43.75 L 104.882812 43.75 L 104.882812 59.699219 C 104.882812 68.96875 96.488281 78.125 86.867188 78.125 L 64.257812 78.125 C 56.371094 78.125 48.632812 83.945312 48.632812 91.804688 L 48.632812 118.632812 C 48.632812 126.257812 54.128906 131.957031 61.8125 133.234375 C 61.621094 133.253906 67.300781 134.394531 72.117188 134.375 Z M 87.695312 121.875 C 85.132812 121.875 83.007812 119.757812 83.007812 117.179688 C 83.007812 114.578125 85.132812 112.5 87.695312 112.5 C 90.3125 112.5 92.382812 114.574219 92.382812 117.179688 C 92.382812 119.75 90.308594 121.875 87.695312 121.875 Z M 87.695312 121.875 "/>
</g>
</svg>
