<?xml version="1.0" encoding="UTF-8"?>
<svg xmlns="http://www.w3.org/2000/svg" xmlns:xlink="http://www.w3.org/1999/xlink" width="150px" height="150px" viewBox="0 0 150 150" version="1.1">
<g id="surface1">
<path style=" stroke:none;fill-rule:nonzero;fill:rgb(54.509807%,71.764708%,94.117647%);fill-opacity:1;" d="M 87.1875 75 C 87.1875 81.738281 81.738281 87.1875 75 87.1875 C 68.261719 87.1875 62.8125 81.738281 62.8125 75 C 62.8125 68.261719 68.261719 62.8125 75 62.8125 C 81.738281 62.8125 87.1875 68.261719 87.1875 75 Z M 87.1875 75 "/>
<path style=" stroke:none;fill-rule:nonzero;fill:rgb(30.588236%,47.843137%,70.980394%);fill-opacity:1;" d="M 75 88.125 C 67.765625 88.125 61.875 82.238281 61.875 75 C 61.875 67.761719 67.765625 61.875 75 61.875 C 82.234375 61.875 88.125 67.761719 88.125 75 C 88.125 82.238281 82.234375 88.125 75 88.125 Z M 75 63.75 C 68.796875 63.75 63.75 68.796875 63.75 75 C 63.75 81.203125 68.796875 86.25 75 86.25 C 81.203125 86.25 86.25 81.203125 86.25 75 C 86.25 68.796875 81.203125 63.75 75 63.75 Z M 75 63.75 "/>
<path style=" stroke:none;fill-rule:nonzero;fill:rgb(54.509807%,71.764708%,94.117647%);fill-opacity:1;" d="M 45.890625 141.566406 C 42.679688 141.566406 39.757812 140.832031 37.203125 139.386719 C 32.929688 136.960938 29.972656 132.785156 28.417969 126.972656 C 26.609375 120.210938 26.824219 111.226562 29.039062 100.953125 C 11.167969 94.804688 0.9375 85.371094 0.9375 75 C 0.9375 64.628906 11.164062 55.195312 29.039062 49.050781 C 26.820312 38.773438 26.605469 29.789062 28.414062 23.027344 C 29.96875 17.214844 32.925781 13.035156 37.199219 10.613281 C 39.75 9.167969 42.675781 8.433594 45.882812 8.433594 C 54.109375 8.433594 64.429688 13.550781 75.003906 22.867188 C 85.578125 13.558594 95.894531 8.445312 104.109375 8.445312 C 107.320312 8.445312 110.242188 9.179688 112.796875 10.628906 C 117.066406 13.046875 120.023438 17.21875 121.578125 23.023438 C 123.390625 29.785156 123.171875 38.769531 120.953125 49.046875 C 138.832031 55.195312 149.0625 64.628906 149.0625 75 C 149.0625 85.371094 138.832031 94.804688 120.953125 100.953125 C 123.171875 111.230469 123.386719 120.214844 121.578125 126.976562 C 120.019531 132.78125 117.066406 136.953125 112.800781 139.371094 C 110.246094 140.820312 107.320312 141.554688 104.113281 141.554688 C 95.890625 141.554688 85.574219 136.441406 75 127.136719 C 64.425781 136.453125 54.109375 141.566406 45.890625 141.566406 Z M 36.257812 103.136719 C 34.398438 111.980469 34.191406 119.535156 35.664062 125.035156 C 36.679688 128.832031 38.441406 131.46875 40.902344 132.863281 C 42.316406 133.664062 43.992188 134.070312 45.890625 134.070312 C 52.253906 134.070312 60.628906 129.792969 69.554688 122 C 65.082031 117.496094 60.714844 112.398438 56.5625 106.828125 C 49.378906 106.050781 42.554688 104.808594 36.257812 103.136719 Z M 80.449219 121.996094 C 89.371094 129.78125 97.75 134.054688 104.113281 134.058594 C 106.007812 134.058594 107.6875 133.648438 109.101562 132.847656 C 111.558594 131.457031 113.3125 128.828125 114.328125 125.035156 C 115.800781 119.535156 115.59375 111.980469 113.738281 103.136719 C 107.433594 104.8125 100.605469 106.050781 93.425781 106.832031 C 89.273438 112.402344 84.914062 117.496094 80.449219 121.996094 Z M 66.6875 107.613281 C 69.410156 110.941406 72.195312 114.046875 75 116.875 C 77.796875 114.050781 80.585938 110.945312 83.304688 107.613281 C 80.511719 107.746094 77.726562 107.8125 75 107.8125 C 72.273438 107.8125 69.484375 107.746094 66.6875 107.613281 Z M 60.65625 99.710938 C 65.332031 100.109375 70.15625 100.3125 75 100.3125 C 79.847656 100.3125 84.664062 100.109375 89.335938 99.710938 C 92.121094 95.804688 94.78125 91.710938 97.238281 87.535156 C 99.613281 83.492188 101.851562 79.277344 103.886719 75 C 101.859375 70.730469 99.621094 66.515625 97.238281 62.464844 C 94.785156 58.300781 92.128906 54.203125 89.335938 50.289062 C 84.667969 49.890625 79.851562 49.6875 75 49.6875 C 70.148438 49.6875 65.328125 49.890625 60.660156 50.289062 C 57.867188 54.199219 55.207031 58.296875 52.75 62.46875 C 50.371094 66.515625 48.136719 70.730469 46.101562 75.003906 C 48.132812 79.265625 50.367188 83.484375 52.75 87.535156 C 55.195312 91.6875 57.851562 95.78125 60.65625 99.710938 Z M 107.796875 83.960938 C 106.472656 86.484375 105.097656 88.960938 103.699219 91.335938 C 102.285156 93.742188 100.785156 96.152344 99.226562 98.53125 C 103.675781 97.84375 107.933594 96.964844 111.921875 95.90625 C 110.8125 92.0625 109.429688 88.054688 107.796875 83.960938 Z M 38.070312 95.902344 C 42.058594 96.960938 46.3125 97.839844 50.761719 98.527344 C 49.191406 96.136719 47.6875 93.722656 46.285156 91.335938 C 44.890625 88.960938 43.515625 86.488281 42.191406 83.964844 C 40.566406 88.042969 39.183594 92.046875 38.070312 95.902344 Z M 112.15625 75 C 115.019531 81.359375 117.355469 87.644531 119.109375 93.707031 C 132.984375 88.824219 141.5625 81.703125 141.5625 75 C 141.5625 68.296875 132.984375 61.175781 119.109375 56.292969 C 117.359375 62.355469 115.023438 68.640625 112.15625 75 Z M 30.886719 56.296875 C 17.011719 61.175781 8.4375 68.300781 8.4375 75 C 8.4375 81.703125 17.011719 88.824219 30.890625 93.703125 C 32.640625 87.640625 34.972656 81.355469 37.835938 75.003906 C 34.972656 68.652344 32.636719 62.367188 30.886719 56.296875 Z M 38.066406 54.097656 C 39.183594 57.949219 40.566406 61.953125 42.191406 66.039062 C 43.511719 63.519531 44.886719 61.046875 46.289062 58.664062 C 47.699219 56.265625 49.199219 53.855469 50.765625 51.472656 C 46.3125 52.15625 42.058594 53.039062 38.066406 54.097656 Z M 99.230469 51.46875 C 100.796875 53.863281 102.300781 56.277344 103.703125 58.664062 C 105.101562 61.039062 106.476562 63.515625 107.800781 66.039062 C 109.429688 61.957031 110.8125 57.949219 111.925781 54.09375 C 107.933594 53.035156 103.675781 52.15625 99.230469 51.46875 Z M 45.882812 15.933594 C 43.988281 15.933594 42.3125 16.335938 40.902344 17.140625 C 38.441406 18.535156 36.679688 21.167969 35.660156 24.96875 C 34.1875 30.46875 34.394531 38.023438 36.253906 46.867188 C 42.554688 45.191406 49.382812 43.949219 56.570312 43.171875 C 60.726562 37.597656 65.089844 32.503906 69.558594 28.003906 C 60.632812 20.210938 52.25 15.933594 45.882812 15.933594 Z M 93.425781 43.167969 C 100.609375 43.949219 107.4375 45.1875 113.738281 46.863281 C 115.597656 38.019531 115.808594 30.464844 114.332031 24.960938 C 113.316406 21.171875 111.558594 18.542969 109.101562 17.152344 C 107.6875 16.351562 106.007812 15.941406 104.109375 15.941406 C 97.75 15.941406 89.375 20.21875 80.449219 28.003906 C 84.914062 32.503906 89.273438 37.597656 93.425781 43.167969 Z M 75 42.1875 C 77.726562 42.1875 80.511719 42.253906 83.308594 42.386719 C 80.589844 39.0625 77.804688 35.957031 75.003906 33.128906 C 72.195312 35.960938 69.414062 39.066406 66.695312 42.386719 C 69.488281 42.253906 72.273438 42.1875 75 42.1875 Z M 75 42.1875 "/>
<path style=" stroke:none;fill-rule:nonzero;fill:rgb(30.588236%,47.843137%,70.980394%);fill-opacity:1;" d="M 45.882812 9.371094 C 54.308594 9.371094 64.625 14.824219 75.003906 24.121094 C 85.382812 14.832031 95.695312 9.382812 104.113281 9.382812 C 107.15625 9.382812 109.921875 10.078125 112.335938 11.441406 C 116.378906 13.734375 119.183594 17.710938 120.671875 23.265625 C 122.691406 30.609375 122.269531 39.65625 119.859375 49.667969 C 137.152344 55.445312 148.125 64.558594 148.125 75 C 148.125 85.441406 137.152344 94.554688 119.859375 100.335938 C 122.371094 111.160156 122.792969 120.445312 120.671875 126.734375 C 119.183594 132.285156 116.378906 136.265625 112.339844 138.558594 C 109.921875 139.925781 107.726562 140.625 104.6875 140.625 C 104.683594 140.625 103.90625 140.625 103.90625 140.625 C 95.484375 140.625 85.375 135.167969 75 125.886719 C 64.621094 135.179688 54.308594 140.628906 45.886719 140.628906 C 42.84375 140.628906 40.078125 139.9375 37.664062 138.570312 C 33.617188 136.273438 30.808594 132.289062 29.324219 126.730469 C 27.09375 119.761719 27.542969 110.601562 30.136719 100.332031 C 12.847656 94.554688 1.875 85.441406 1.875 75 C 1.875 64.558594 12.847656 55.445312 30.136719 49.667969 C 28.847656 43.929688 28.023438 38.605469 27.996094 33.75 C 27.972656 29.914062 28.496094 26.34375 29.320312 23.269531 C 30.808594 17.707031 33.613281 13.726562 37.660156 11.429688 C 40.074219 10.0625 42.839844 9.371094 45.882812 9.371094 M 35.546875 48.027344 C 42.066406 46.234375 49.304688 44.882812 57.078125 44.058594 C 61.542969 38.039062 66.21875 32.625 70.925781 27.960938 C 61.789062 19.8125 52.894531 14.992188 45.882812 14.992188 C 43.824219 14.992188 41.992188 15.4375 40.4375 16.320312 C 37.75 17.847656 35.839844 20.671875 34.753906 24.722656 C 33.144531 30.726562 33.511719 38.84375 35.546875 48.027344 M 114.449219 48.023438 C 116.484375 38.839844 116.847656 30.722656 115.238281 24.71875 C 114.15625 20.675781 112.246094 17.855469 109.5625 16.335938 C 108.007812 15.453125 106.171875 15.003906 104.113281 15.003906 C 97.105469 15.003906 88.21875 19.820312 79.082031 27.960938 C 83.789062 32.625 88.457031 38.039062 92.921875 44.054688 C 100.6875 44.878906 107.929688 46.234375 114.449219 48.023438 M 64.644531 43.4375 C 68.023438 43.234375 71.410156 43.0625 74.933594 43.0625 C 78.457031 43.0625 81.976562 43.238281 85.355469 43.4375 C 81.964844 39.164062 78.484375 35.257812 75 31.804688 C 71.519531 35.257812 68.039062 39.164062 64.644531 43.4375 M 75 101.25 C 80.175781 101.25 85.132812 101.023438 89.847656 100.609375 C 92.695312 96.640625 95.449219 92.425781 98.042969 88.011719 C 100.582031 83.699219 102.875 79.335938 104.925781 75 C 102.875 70.664062 100.582031 66.300781 98.046875 61.992188 C 95.449219 57.578125 92.695312 53.363281 89.847656 49.394531 C 85.132812 48.976562 80.179688 48.75 75 48.75 C 69.820312 48.75 64.863281 48.976562 60.148438 49.394531 C 57.296875 53.363281 54.542969 57.578125 51.945312 61.992188 C 49.410156 66.300781 47.113281 70.664062 45.066406 75 C 47.113281 79.339844 49.40625 83.699219 51.941406 88.007812 C 54.539062 92.421875 57.292969 96.636719 60.144531 100.605469 C 64.859375 101.023438 69.820312 101.25 75 101.25 M 107.898438 68.273438 C 110.007812 63.195312 111.753906 58.207031 113.085938 53.4375 C 108.296875 52.121094 103.011719 51.035156 97.28125 50.238281 C 99.210938 53.101562 101.085938 56.066406 102.890625 59.140625 C 104.679688 62.175781 106.34375 65.226562 107.898438 68.273438 M 42.09375 68.277344 C 43.644531 65.230469 45.308594 62.175781 47.09375 59.140625 C 48.902344 56.066406 50.78125 53.101562 52.710938 50.238281 C 46.980469 51.035156 41.695312 52.125 36.90625 53.4375 C 38.238281 58.210938 39.984375 63.195312 42.09375 68.277344 M 118.476562 94.917969 C 133.621094 89.785156 142.5 82.25 142.5 75 C 142.5 67.75 133.621094 60.214844 118.476562 55.082031 C 116.691406 61.46875 114.222656 68.175781 111.128906 75 C 114.222656 81.820312 116.691406 88.53125 118.476562 94.917969 M 31.519531 94.914062 C 33.304688 88.53125 35.769531 81.824219 38.863281 75.003906 C 35.769531 68.183594 33.300781 61.472656 31.515625 55.085938 C 16.375 60.21875 7.5 67.753906 7.5 75 C 7.5 82.25 16.378906 89.785156 31.519531 94.914062 M 97.28125 99.761719 C 103.011719 98.96875 108.296875 97.878906 113.085938 96.5625 C 111.75 91.792969 110.007812 86.804688 107.898438 81.722656 C 106.34375 84.769531 104.679688 87.824219 102.890625 90.859375 C 101.085938 93.933594 99.210938 96.898438 97.28125 99.761719 M 52.703125 99.761719 C 50.777344 96.898438 48.898438 93.933594 47.09375 90.863281 C 45.308594 87.828125 43.644531 84.777344 42.09375 81.730469 C 39.984375 86.808594 38.242188 91.792969 36.910156 96.5625 C 41.695312 97.875 46.980469 98.964844 52.703125 99.761719 M 45.890625 135.003906 C 52.898438 135.003906 61.789062 130.1875 70.921875 122.042969 C 66.210938 117.375 61.539062 111.960938 57.070312 105.941406 C 49.304688 105.117188 42.066406 103.765625 35.550781 101.972656 C 33.515625 111.15625 33.152344 119.273438 34.757812 125.277344 C 35.84375 129.328125 37.753906 132.152344 40.441406 133.675781 C 41.992188 134.558594 43.828125 135.003906 45.890625 135.003906 M 104.113281 134.996094 C 106.171875 134.996094 108.003906 134.546875 109.5625 133.664062 C 112.246094 132.144531 114.152344 129.324219 115.234375 125.277344 C 116.84375 119.273438 116.476562 111.15625 114.445312 101.976562 C 107.925781 103.765625 100.6875 105.121094 92.917969 105.941406 C 88.453125 111.960938 83.785156 117.375 79.078125 122.039062 C 88.210938 130.175781 97.101562 134.992188 104.113281 134.996094 M 75 118.199219 C 78.480469 114.742188 81.960938 110.835938 85.355469 106.5625 C 81.976562 106.765625 78.679688 107.1875 75.15625 107.1875 C 71.628906 107.1875 68.015625 106.765625 64.640625 106.5625 C 68.03125 110.839844 71.515625 114.746094 75 118.199219 M 45.21875 7.636719 C 41.84375 7.636719 39.433594 8.269531 36.738281 9.796875 C 32.238281 12.347656 29.132812 16.71875 27.511719 22.78125 C 25.710938 29.507812 25.867188 38.347656 27.953125 48.433594 C 10.160156 54.730469 0 64.359375 0 75 C 0 85.640625 10.164062 95.269531 27.953125 101.566406 C 25.867188 111.652344 25.710938 120.492188 27.515625 127.21875 C 29.136719 133.277344 32.238281 137.648438 36.742188 140.203125 C 39.441406 141.734375 42.683594 142.382812 46.054688 142.382812 C 54.46875 142.382812 64.34375 137.628906 75 128.386719 C 85.660156 137.621094 95.699219 142.492188 104.109375 142.496094 C 107.484375 142.496094 110.5625 141.71875 113.261719 140.191406 C 117.757812 137.640625 120.859375 133.277344 122.480469 127.21875 C 124.28125 120.492188 124.125 111.652344 122.039062 101.570312 C 139.835938 95.273438 150 85.640625 150 75 C 150 64.359375 139.835938 54.726562 122.042969 48.433594 C 124.128906 38.34375 124.285156 29.503906 122.484375 22.78125 C 120.859375 16.722656 117.753906 12.359375 113.257812 9.808594 C 110.5625 8.28125 107.484375 7.503906 104.109375 7.503906 C 95.703125 7.503906 85.664062 12.378906 75.003906 21.617188 C 64.34375 12.371094 54.253906 7.628906 45.839844 7.628906 Z M 36.976562 45.707031 C 36.109375 41.347656 35.527344 37.265625 35.496094 33.683594 C 35.46875 30.460938 35.910156 27.652344 36.5625 25.207031 C 37.515625 21.660156 39.128906 19.21875 41.363281 17.953125 C 42.628906 17.230469 44.175781 16.742188 45.90625 16.742188 C 51.871094 16.742188 59.71875 20.828125 68.1875 28.058594 C 64.023438 32.320312 59.953125 37.09375 56.0625 42.28125 C 49.339844 43.03125 42.933594 44.179688 36.976562 45.707031 Z M 81.820312 28.0625 C 90.285156 20.835938 98.15625 16.878906 104.109375 16.878906 C 105.84375 16.878906 107.367188 17.246094 108.636719 17.964844 C 110.867188 19.230469 112.480469 21.664062 113.429688 25.207031 C 115.066406 30.488281 114.855469 37.511719 113.019531 45.703125 C 107.0625 44.179688 100.65625 43.027344 93.9375 42.28125 C 90.046875 37.097656 85.980469 32.324219 81.820312 28.0625 Z M 68.761719 41.363281 C 70.816406 38.925781 72.902344 36.617188 75 34.464844 C 77.101562 36.617188 79.183594 38.925781 81.238281 41.363281 C 79.140625 41.289062 77.054688 41.25 75 41.25 C 72.945312 41.25 70.863281 41.289062 68.761719 41.363281 Z M 61.171875 51.1875 C 65.679688 50.8125 70.328125 50.546875 75 50.546875 C 79.671875 50.546875 84.316406 50.8125 88.824219 51.1875 C 91.507812 54.972656 94.066406 58.921875 96.429688 62.941406 C 98.71875 66.839844 100.878906 70.890625 102.847656 75 C 100.875 79.109375 98.71875 83.160156 96.425781 87.058594 C 94.0625 91.078125 91.507812 95.027344 88.824219 98.8125 C 84.316406 99.1875 79.671875 99.6875 75 99.6875 C 70.324219 99.6875 65.675781 99.183594 61.167969 98.8125 C 58.480469 95.027344 55.921875 91.078125 53.558594 87.054688 C 51.265625 83.160156 49.109375 79.109375 47.140625 75 C 49.109375 70.890625 51.269531 66.835938 53.558594 62.941406 C 55.925781 58.921875 58.484375 54.972656 61.171875 51.1875 Z M 107.667969 63.796875 C 106.636719 61.886719 105.582031 60.011719 104.511719 58.1875 C 103.441406 56.371094 102.324219 54.546875 101.164062 52.734375 C 104.488281 53.300781 107.699219 53.976562 110.753906 54.757812 C 109.875 57.695312 108.84375 60.71875 107.667969 63.796875 Z M 39.238281 54.757812 C 42.292969 53.976562 45.503906 53.300781 48.828125 52.734375 C 47.667969 54.546875 46.546875 56.371094 45.480469 58.1875 C 44.410156 60.007812 43.355469 61.882812 42.324219 63.792969 C 41.148438 60.71875 40.117188 57.699219 39.238281 54.757812 Z M 113.183594 75 C 115.835938 69.070312 118.035156 63.199219 119.726562 57.511719 C 132.671875 62.234375 140.625 68.851562 140.625 75 C 140.625 81.148438 132.671875 87.765625 119.726562 92.488281 C 118.03125 86.796875 115.835938 80.925781 113.183594 75 Z M 30.265625 92.484375 C 17.328125 87.761719 9.375 81.144531 9.375 75 C 9.375 68.855469 17.328125 62.238281 30.265625 57.515625 C 31.957031 63.203125 34.152344 69.074219 36.804688 75 C 34.15625 80.929688 31.960938 86.796875 30.265625 92.484375 Z M 101.160156 97.265625 C 102.320312 95.453125 103.441406 93.628906 104.507812 91.8125 C 105.582031 89.992188 106.636719 88.113281 107.667969 86.203125 C 108.84375 89.28125 109.875 92.304688 110.753906 95.246094 C 107.695312 96.023438 104.488281 96.703125 101.160156 97.265625 Z M 39.242188 95.242188 C 40.117188 92.304688 41.148438 89.285156 42.324219 86.210938 C 43.351562 88.117188 44.40625 89.992188 45.476562 91.8125 C 46.546875 93.628906 47.664062 95.449219 48.824219 97.265625 C 45.5 96.699219 42.292969 96.019531 39.242188 95.242188 Z M 45.890625 133.128906 C 44.15625 133.128906 42.632812 132.765625 41.363281 132.046875 C 39.132812 130.777344 37.519531 128.339844 36.570312 124.789062 C 35.011719 119.457031 35.1875 112.429688 36.980469 104.292969 C 42.933594 105.816406 49.339844 106.96875 56.058594 107.714844 C 59.949219 112.902344 64.019531 117.675781 68.183594 121.941406 C 59.71875 129.175781 51.847656 133.132812 45.890625 133.128906 Z M 93.933594 107.71875 C 100.652344 106.96875 107.0625 105.820312 113.015625 104.296875 C 115.089844 113.183594 115.253906 120.265625 113.425781 124.792969 C 112.476562 128.335938 110.867188 130.769531 108.640625 132.03125 C 107.367188 132.75 105.84375 133.117188 104.113281 133.117188 L 104.113281 134.992188 L 104.113281 133.117188 C 98.152344 133.117188 90.28125 129.160156 81.816406 121.941406 C 85.980469 117.679688 90.046875 112.90625 93.933594 107.71875 Z M 75 115.539062 C 72.898438 113.386719 70.8125 111.078125 68.757812 108.636719 C 70.855469 108.710938 72.945312 108.75 75 108.75 C 77.054688 108.75 79.140625 108.710938 81.238281 108.636719 C 79.183594 111.078125 77.097656 113.386719 75 115.539062 Z M 75 115.539062 "/>
</g>
</svg>
